# xmcd
# Copyright (C) 1995-1998 Ti Kan
#
# Track frame offsets:
#       150
#       14501
#       41609
#       64427
#       82902
#       99180
#       116082
#       148380
#       160870
#       179462
#       198390
#
# Disc length: 2882 seconds
#
# Revision: 0
# Processed by: cddbd v1.5.2PL0 Copyright (c) Steve Scherf et al.
# Submitted via: CD-Import v1.0
#
DISCID=980b400b
DTITLE=Don Covay - Hot Blood
DYEAR=1972
DGENRE=
TTITLE0=It's Better To Have And Don't Need)
TTITLE1=A Mind Is A Terrible Thing To Waste
TTITLE2=Sexy Lady
TTITLE3=We Can't Make It No More
TTITLE4=Rumble In The Jungle
TTITLE5=What's Good To You (Don't Have To Be Good For You)
TTITLE6=I Been Here All The Time
TTITLE7=Hot Blood
TTITLE8=Enjoy What You Have
TTITLE9=Gangster Strut
TTITLE10=Dungeon Number 5
EXTD=
EXTT0=
EXTT1=
EXTT2=
EXTT3=
EXTT4=
EXTT5=
EXTT6=
EXTT7=
EXTT8=
EXTT9=
EXTT10=
PLAYORDER=
